HIERARCHY
ROOT Hips
{
	OFFSET 0.000000 83.214638 0.000000
	CHANNELS 6 Xposition Yposition Zposition Xrotation Yrotation Zrotation
	JOINT Pelvis
	{
		OFFSET 0.000000 0.000000 0.000000
		CHANNELS 3 Xrotation Yrotation Zrotation
		JOINT LeftUpLeg
		{
			OFFSET 8.479700 -4.795502 -0.379100
			CHANNELS 3 Xrotation Yrotation Zrotation
			JOINT LeftLeg
			{
				OFFSET 0.024144 -32.555107 0.112900
				CHANNELS 3 Xrotation Yrotation Zrotation
				JOINT LeftFoot
				{
					OFFSET -0.024144 -32.638630 -3.012600
					CHANNELS 3 Xrotation Yrotation Zrotation
					JOINT LeftToeBase
					{
						OFFSET 0.970200 -13.225400 11.864200
						CHANNELS 3 Xrotation Yrotation Zrotation
						End Site
						{
							OFFSET 0.000000 12.319262 0.000000
						}
					}
					JOINT LFootTongue
					{
						OFFSET 1.142400 -1.059800 6.665200
						CHANNELS 3 Xrotation Yrotation Zrotation
						End Site
						{
							OFFSET 0.000000 12.319262 0.000000
						}
					}
				}
				JOINT LeftPantLeg
				{
					OFFSET 0.918482 -16.533964 -2.284700
					CHANNELS 3 Xrotation Yrotation Zrotation
					End Site
					{
						OFFSET 0.350399 24.744368 0.000000
					}
				}
			}
		}
		JOINT RightUpLeg
		{
			OFFSET -8.479700 -4.795502 -0.379100
			CHANNELS 3 Xrotation Yrotation Zrotation
			JOINT RightLeg
			{
				OFFSET -0.023144 -32.555092 0.112900
				CHANNELS 3 Xrotation Yrotation Zrotation
				JOINT RightFoot
				{
					OFFSET 0.023144 -32.638641 -3.012700
					CHANNELS 3 Xrotation Yrotation Zrotation
					JOINT RightToeBase
					{
						OFFSET -0.970200 -13.225400 11.864200
						CHANNELS 3 Xrotation Yrotation Zrotation
						End Site
						{
							OFFSET 0.000000 12.319244 0.000000
						}
					}
					JOINT RFootTongue
					{
						OFFSET -1.142200 -1.059800 6.665200
						CHANNELS 3 Xrotation Yrotation Zrotation
						End Site
						{
							OFFSET 0.000000 12.319243 0.000000
						}
					}
				}
				JOINT RightPantLeg
				{
					OFFSET -0.919482 -16.533978 -2.284800
					CHANNELS 3 Xrotation Yrotation Zrotation
					End Site
					{
						OFFSET -0.350400 24.744419 0.000000
					}
				}
			}
		}
	}
	JOINT Spine
	{
		OFFSET 0.000000 7.722000 1.166200
		CHANNELS 3 Xrotation Yrotation Zrotation
		JOINT Spine1
		{
			OFFSET 0.000000 12.024101 0.248800
			CHANNELS 3 Xrotation Yrotation Zrotation
			JOINT Spine2
			{
				OFFSET 0.000000 11.502998 -0.491200
				CHANNELS 3 Xrotation Yrotation Zrotation
				JOINT Neck
				{
					OFFSET 0.000000 18.430702 -3.123100
					CHANNELS 3 Xrotation Yrotation Zrotation
					JOINT Head
					{
						OFFSET 0.000000 9.051102 1.034000
						CHANNELS 3 Xrotation Yrotation Zrotation
						JOINT HairB
						{
							OFFSET 0.208400 24.786102 24.822300
							CHANNELS 3 Xrotation Yrotation Zrotation
							End Site
							{
								OFFSET 0.000000 32.263779 0.000000
							}
						}
						JOINT HairA
						{
							OFFSET -7.081100 24.428299 23.196600
							CHANNELS 3 Xrotation Yrotation Zrotation
							End Site
							{
								OFFSET 0.000000 32.263779 0.000000
							}
						}
						JOINT Hat
						{
							OFFSET 16.728800 15.048294 -15.439601
							CHANNELS 3 Xrotation Yrotation Zrotation
							End Site
							{
								OFFSET 0.000000 32.263779 0.000000
							}
						}
					}
				}
				JOINT LeftShoulder
				{
					OFFSET 6.197800 13.665199 -4.064700
					CHANNELS 3 Xrotation Yrotation Zrotation
					JOINT LeftArm
					{
						OFFSET 7.778100 -0.187103 -1.709300
						CHANNELS 3 Xrotation Yrotation Zrotation
						JOINT LeftForeArm
						{
							OFFSET 22.049376 0.000000 0.000000
							CHANNELS 3 Xrotation Yrotation Zrotation
							JOINT LeftHand
							{
								OFFSET 23.009392 0.000000 0.000000
								CHANNELS 3 Xrotation Yrotation Zrotation
								JOINT LeftHandThumb1
								{
									OFFSET 3.507191 -2.063065 3.133727
									CHANNELS 3 Xrotation Yrotation Zrotation
									JOINT LeftHandThumb2
									{
										OFFSET 3.101337 -1.790558 1.790558
										CHANNELS 3 Xrotation Yrotation Zrotation
										JOINT LeftHandThumb3
										{
											OFFSET 3.058640 -1.765907 1.765906
											CHANNELS 3 Xrotation Yrotation Zrotation
											End Site
											{
												OFFSET -0.415260 3.926476 -0.049563
											}
										}
									}
								}
								JOINT LeftHandIndex1
								{
									OFFSET 11.334419 -0.901459 3.706815
									CHANNELS 3 Xrotation Yrotation Zrotation
									JOINT LeftHandIndex2
									{
										OFFSET 3.283112 0.000000 0.000000
										CHANNELS 3 Xrotation Yrotation Zrotation
										JOINT LeftHandIndex3
										{
											OFFSET 3.323853 0.000000 0.000000
											CHANNELS 3 Xrotation Yrotation Zrotation
											End Site
											{
												OFFSET -1.135597 3.097809 0.402452
											}
										}
									}
								}
								JOINT LeftHandMiddle1
								{
									OFFSET 11.335861 0.000000 0.000000
									CHANNELS 3 Xrotation Yrotation Zrotation
									JOINT LeftHandMiddle2
									{
										OFFSET 3.410492 0.000000 0.000000
										CHANNELS 3 Xrotation Yrotation Zrotation
										JOINT LeftHandMiddle3
										{
											OFFSET 3.312172 0.000000 0.000000
											CHANNELS 3 Xrotation Yrotation Zrotation
											End Site
											{
												OFFSET -1.150200 3.080154 0.400270
											}
										}
									}
								}
								JOINT LeftHandRing1
								{
									OFFSET 11.514786 -0.013176 -3.003090
									CHANNELS 3 Xrotation Yrotation Zrotation
									JOINT LeftHandRing2
									{
										OFFSET 3.053307 0.000000 0.000000
										CHANNELS 3 Xrotation Yrotation Zrotation
										JOINT LeftHandRing3
										{
											OFFSET 3.295807 0.000000 0.000000
											CHANNELS 3 Xrotation Yrotation Zrotation
											End Site
											{
												OFFSET -1.281006 3.013344 0.375733
											}
										}
									}
								}
								JOINT LeftHandPinky1
								{
									OFFSET 10.518692 -0.960396 -5.730441
									CHANNELS 3 Xrotation Yrotation Zrotation
									JOINT LeftHandPinky2
									{
										OFFSET 2.861649 0.000000 0.000000
										CHANNELS 3 Xrotation Yrotation Zrotation
										JOINT LeftHandPinky3
										{
											OFFSET 2.863380 0.000000 0.000000
											CHANNELS 3 Xrotation Yrotation Zrotation
											End Site
											{
												OFFSET -0.843597 2.711159 0.369971
											}
										}
									}
								}
							}
							JOINT LSleeve
							{
								OFFSET 6.676277 -0.344902 -1.011730
								CHANNELS 3 Xrotation Yrotation Zrotation
								End Site
								{
									OFFSET 0.000000 14.885353 0.000000
								}
							}
						}
					}
				}
				JOINT RightShoulder
				{
					OFFSET -6.197800 13.665199 -4.064700
					CHANNELS 3 Xrotation Yrotation Zrotation
					JOINT RightArm
					{
						OFFSET -7.778100 -0.187103 -1.709300
						CHANNELS 3 Xrotation Yrotation Zrotation
						JOINT RightForeArm
						{
							OFFSET -22.049376 0.000000 0.000000
							CHANNELS 3 Xrotation Yrotation Zrotation
							JOINT RightHand
							{
								OFFSET -23.009392 0.000000 0.000000
								CHANNELS 3 Xrotation Yrotation Zrotation
								JOINT RightHandThumb1
								{
									OFFSET -3.507191 -2.063065 3.133727
									CHANNELS 3 Xrotation Yrotation Zrotation
									JOINT RightHandThumb2
									{
										OFFSET -3.101337 -1.790558 1.790558
										CHANNELS 3 Xrotation Yrotation Zrotation
										JOINT RightHandThumb3
										{
											OFFSET -3.058640 -1.765907 1.765906
											CHANNELS 3 Xrotation Yrotation Zrotation
											End Site
											{
												OFFSET 0.415260 3.926476 -0.049563
											}
										}
									}
								}
								JOINT RightHandIndex1
								{
									OFFSET -11.334419 -0.901459 3.706815
									CHANNELS 3 Xrotation Yrotation Zrotation
									JOINT RightHandIndex2
									{
										OFFSET -3.283112 0.000000 0.000000
										CHANNELS 3 Xrotation Yrotation Zrotation
										JOINT RightHandIndex3
										{
											OFFSET -3.323853 0.000000 0.000000
											CHANNELS 3 Xrotation Yrotation Zrotation
											End Site
											{
												OFFSET 1.135597 3.097809 0.402452
											}
										}
									}
								}
								JOINT RightHandMiddle1
								{
									OFFSET -11.335861 0.000000 0.000000
									CHANNELS 3 Xrotation Yrotation Zrotation
									JOINT RightHandMiddle2
									{
										OFFSET -3.410492 0.000000 0.000000
										CHANNELS 3 Xrotation Yrotation Zrotation
										JOINT RightHandMiddle3
										{
											OFFSET -3.312172 0.000000 0.000000
											CHANNELS 3 Xrotation Yrotation Zrotation
											End Site
											{
												OFFSET 1.150200 3.080154 0.400270
											}
										}
									}
								}
								JOINT RightHandRing1
								{
									OFFSET -11.514786 -0.013176 -3.003090
									CHANNELS 3 Xrotation Yrotation Zrotation
									JOINT RightHandRing2
									{
										OFFSET -3.053307 0.000000 0.000000
										CHANNELS 3 Xrotation Yrotation Zrotation
										JOINT RightHandRing3
										{
											OFFSET -3.295807 0.000000 0.000000
											CHANNELS 3 Xrotation Yrotation Zrotation
											End Site
											{
												OFFSET 1.281006 3.013344 0.375733
											}
										}
									}
								}
								JOINT RightHandPinky1
								{
									OFFSET -10.518692 -0.960396 -5.730441
									CHANNELS 3 Xrotation Yrotation Zrotation
									JOINT RightHandPinky2
									{
										OFFSET -2.861649 0.000000 0.000000
										CHANNELS 3 Xrotation Yrotation Zrotation
										JOINT RightHandPinky3
										{
											OFFSET -2.863380 0.000000 0.000000
											CHANNELS 3 Xrotation Yrotation Zrotation
											End Site
											{
												OFFSET 0.843597 2.711159 0.369971
											}
										}
									}
								}
							}
							JOINT RSleeve
							{
								OFFSET -6.676277 -0.344902 -1.011730
								CHANNELS 3 Xrotation Yrotation Zrotation
								End Site
								{
									OFFSET 0.000000 14.885353 0.000000
								}
							}
						}
					}
				}
				JOINT Backpack
				{
					OFFSET 0.000000 -2.471497 36.677502
					CHANNELS 3 Xrotation Yrotation Zrotation
					End Site
					{
						OFFSET 0.000000 20.427315 0.000000
					}
				}
				JOINT Hood
				{
					OFFSET 0.000000 18.754097 -10.431000
					CHANNELS 3 Xrotation Yrotation Zrotation
					JOINT Hood1
					{
						OFFSET 0.000000 -5.011002 -7.685901
						CHANNELS 3 Xrotation Yrotation Zrotation
						End Site
						{
							OFFSET 0.000000 9.175140 0.000000
						}
					}
				}
				JOINT LHoodieString
				{
					OFFSET 5.250500 16.397697 3.089900
					CHANNELS 3 Xrotation Yrotation Zrotation
					JOINT LHoodieString1
					{
						OFFSET 0.257700 -6.364304 3.694600
						CHANNELS 3 Xrotation Yrotation Zrotation
						JOINT LHoodieString2
						{
							OFFSET 0.000000 -9.643799 2.679100
							CHANNELS 3 Xrotation Yrotation Zrotation
							End Site
							{
								OFFSET 0.000000 10.009018 0.000000
							}
						}
					}
				}
				JOINT RHoodieString
				{
					OFFSET -5.250500 16.397697 3.089900
					CHANNELS 3 Xrotation Yrotation Zrotation
					JOINT RHoodieString1
					{
						OFFSET -0.257700 -6.364304 3.694600
						CHANNELS 3 Xrotation Yrotation Zrotation
						JOINT RHoodieString2
						{
							OFFSET 0.000000 -9.643799 2.679100
							CHANNELS 3 Xrotation Yrotation Zrotation
							End Site
							{
								OFFSET 0.000000 10.009018 0.000000
							}
						}
					}
				}
			}
			JOINT LBackpack_Strap
			{
				OFFSET 15.223200 -7.719803 -6.610900
				CHANNELS 3 Xrotation Yrotation Zrotation
				End Site
				{
					OFFSET 0.000000 16.040596 0.000000
				}
			}
			JOINT RBackpack_Strap
			{
				OFFSET -15.223000 -7.719803 -6.610900
				CHANNELS 3 Xrotation Yrotation Zrotation
				End Site
				{
					OFFSET 0.000000 16.040596 0.000000
				}
			}
		}
	}
	JOINT BoyFacialAnim_Joint
	{
		OFFSET 1.000000 -82.208099 -1.550900
		CHANNELS 3 Xrotation Yrotation Zrotation
		End Site
		{
			OFFSET 0.000000 30.012791 0.000000
		}
	}
}
MOTION
Frames: 5
Frame Time: 0.033333
0.967201 82.140465 -1.733871 -2.843076 -1.565284 -4.850572 0.000000 0.000000 0.000000 -17.182784 13.778111 11.574713 16.534402 -1.656846 4.517633 1.483813 0.477503 -6.230419 -0.000000 0.000000 0.000000 -0.000000 0.000000 0.000000 0.000000 0.000000 0.000001 -2.210795 -9.738434 4.949530 8.541409 -9.990377 -4.532633 -2.750451 -5.969524 3.667824 -0.000000 -0.000000 -0.000000 -0.000000 -0.000000 -0.000000 0.000001 -0.000001 -0.000001 4.492866 1.758905 2.024863 3.063999 0.707735 0.864965 3.038202 0.736732 0.879853 6.651522 -0.344885 -1.463839 -7.675281 -0.251788 -3.001876 -0.000000 0.000000 0.000000 -0.000000 0.000000 0.000000 -0.000000 0.000000 0.000000 0.813015 -18.551687 -14.063191 1.026460 -17.435381 -65.451189 -0.000006 -1.136234 -0.000012 -31.878228 -1.630720 -3.795216 1.469929 3.206985 4.027223 11.525199 25.113883 18.282950 0.000000 -0.000003 0.000000 0.329873 -0.638056 -7.642336 0.272042 1.766154 -17.511463 0.000000 -0.000000 -0.000000 0.163525 3.490934 -14.516169 0.265025 1.743776 -17.282457 0.000000 -0.000000 -0.000001 0.382167 4.290651 -22.295776 0.389529 2.102377 -20.991307 -0.000000 -0.000001 0.000003 1.109899 5.900791 -27.828537 0.270691 1.761890 -17.467765 -0.000001 0.000000 0.000001 0.000000 0.000000 0.000000 1.341081 18.245269 13.861702 8.841775 27.435874 60.339708 -0.000007 6.713250 -0.000004 -18.362566 -0.163625 4.522095 0.165544 0.691783 -1.838146 11.810000 -29.489000 -18.720659 -0.000001 0.000002 0.000004 0.045415 0.383583 10.213263 0.211806 -1.389875 17.327888 0.000002 -0.000001 -0.000000 -0.016916 -2.790896 17.465072 0.209013 -1.380902 17.212415 0.000004 0.000001 -0.000000 0.302784 -3.834852 23.349394 0.306398 -1.662924 20.878048 0.000002 0.000001 0.000002 0.654278 -4.786630 31.653777 0.207768 -1.376910 17.160879 -0.000001 0.000000 0.000004 -0.000002 0.000000 -0.000001 -0.000000 -0.000000 -0.000000 -0.000000 -0.000000 -0.000000 -0.000000 -0.000000 -0.000000 -0.000000 -0.000000 -0.000000 -0.000000 -0.000000 0.000000 -0.000000 -0.000000 0.000000 -0.000000 -0.000000 -0.000000 -0.000000 -0.000000 0.000000 -0.000000 -0.000000 0.000000 0.000000 0.000000 0.000000 0.000000 0.000000 0.000000 0.000000 0.000000 0.000000 
0.914005 82.206947 -1.728049 -2.975396 -1.945212 -4.726460 0.000000 0.000000 0.000000 -16.531274 13.847503 11.440214 15.763054 -1.261711 4.482331 1.780706 0.487430 -6.331681 -0.000000 -0.000000 0.000000 -0.000000 -0.000000 0.000000 0.000000 -0.000001 0.000000 -1.767912 -9.764308 4.841976 7.839089 -9.992182 -4.455540 -2.490332 -5.486611 3.563368 -0.000000 -0.000002 -0.000000 -0.000000 -0.000002 -0.000000 -0.000000 0.000002 -0.000001 4.406023 1.740528 2.054851 2.914316 0.677424 0.917758 2.888507 0.706075 0.932541 6.650720 -0.340702 -1.325406 -7.659953 -0.218515 -2.788512 0.000000 -0.000000 -0.000000 0.000000 -0.000000 -0.000000 0.000000 -0.000000 -0.000000 0.823504 -18.532759 -13.991053 1.441794 -17.518581 -65.793921 -0.000002 -1.131942 -0.000006 -31.840802 -1.510924 -3.860236 2.238955 3.648380 3.764625 11.408387 24.994073 18.743228 -0.000000 -0.000001 0.000002 0.461605 -0.452749 -7.981616 0.272114 1.766391 -17.513913 0.000001 0.000000 -0.000002 0.138557 3.382687 -14.120966 0.261977 1.733940 -17.181860 0.000000 0.000000 -0.000001 0.455226 4.468134 -22.270368 0.388396 2.099429 -20.960438 -0.000000 -0.000001 0.000003 1.183859 6.052899 -27.864692 0.270902 1.762557 -17.474595 -0.000000 0.000000 0.000001 0.000004 0.000000 0.000000 1.310281 18.027200 14.026328 9.256024 27.308792 60.339763 0.000003 6.713100 0.000003 -18.393756 -0.026172 4.389991 0.024870 0.720934 -2.003587 11.916064 -29.534219 -18.401103 -0.000000 0.000005 0.000003 0.031956 0.511490 9.807653 0.214328 -1.397949 17.431679 0.000001 -0.000001 0.000002 -0.027823 -2.740092 17.181223 0.208627 -1.379667 17.196625 0.000001 0.000000 0.000003 0.267110 -3.746338 23.011300 0.306316 -1.662682 20.874935 0.000001 0.000002 0.000004 0.687631 -4.822292 31.060330 0.207792 -1.377006 17.162276 -0.000000 0.000000 0.000004 0.000003 -0.000000 -0.000001 0.000001 0.000000 0.000000 0.000001 0.000000 0.000000 0.000001 0.000000 0.000000 0.000001 0.000000 0.000000 0.000001 0.000000 -0.000000 0.000001 0.000000 -0.000000 0.000001 0.000000 0.000000 0.000001 0.000000 -0.000000 0.000001 0.000000 -0.000000 0.000000 -0.000000 0.000000 0.000000 -0.000000 0.000000 0.000000 0.000000 0.000000 
0.860202 82.261391 -1.715281 -3.083877 -2.339324 -4.613935 0.000000 0.000000 0.000001 -15.953278 13.908790 11.336738 15.092242 -0.853693 4.439694 2.031523 0.496946 -6.428235 -0.000000 -0.000000 -0.000000 -0.000000 -0.000000 -0.000000 -0.000000 0.000000 -0.000000 -1.338140 -9.798875 4.731339 7.130953 -9.993339 -4.352536 -2.237789 -4.975159 3.469015 -0.000000 -0.000001 -0.000000 -0.000000 -0.000001 -0.000000 -0.000000 0.000002 0.000000 4.312700 1.724289 2.091102 2.755202 0.649973 0.977301 2.729382 0.678266 0.991992 6.649437 -0.339873 -1.179019 -7.634814 -0.170214 -2.643035 0.000000 -0.000000 -0.000001 0.000000 -0.000000 -0.000001 0.000000 -0.000000 -0.000001 0.838513 -18.505622 -13.887583 1.851971 -17.539951 -66.186104 -0.000003 -1.129450 0.000007 -31.845726 -1.391451 -3.849609 3.344858 4.373765 3.441810 11.223128 24.793083 19.489639 -0.000000 -0.000000 0.000004 0.694343 -0.123374 -8.661896 0.272320 1.767040 -17.520550 0.000001 0.000000 -0.000002 0.167207 3.500415 -14.301031 0.259967 1.727437 -17.115370 0.000001 0.000000 0.000002 0.574375 4.755474 -22.609296 0.387772 2.097799 -20.943395 0.000000 0.000000 -0.000000 1.333241 6.340772 -28.121513 0.271205 1.763507 -17.484333 0.000001 -0.000000 -0.000000 0.000000 0.000000 0.000001 1.282811 17.803127 14.176782 9.594389 27.049829 60.356025 -0.000012 6.683023 -0.000004 -18.560856 -0.000564 4.446253 -0.189704 0.659108 -2.274862 12.033081 -29.581741 -18.057774 -0.000000 0.000004 0.000004 0.020634 0.641730 9.386486 0.213990 -1.396890 17.418152 0.000002 -0.000001 0.000002 -0.041326 -2.687857 17.040559 0.210924 -1.387086 17.291913 0.000002 0.000001 0.000002 0.240281 -3.675803 22.640424 0.306171 -1.662322 20.870188 0.000001 -0.000001 0.000002 0.732784 -4.875008 30.315620 0.207820 -1.377060 17.162875 -0.000002 -0.000000 0.000000 -0.000003 0.000000 0.000000 -0.000000 -0.000000 0.000000 -0.000000 -0.000000 0.000000 -0.000000 -0.000000 0.000000 -0.000000 -0.000000 0.000000 -0.000000 -0.000000 0.000000 -0.000000 0.000000 0.000000 -0.000000 -0.000000 0.000000 -0.000000 -0.000000 0.000000 -0.000000 0.000000 0.000000 0.000000 0.000000 0.000000 0.000000 0.000000 0.000000 0.000000 0.000000 0.000001 
0.805092 82.307472 -1.696988 -3.160816 -2.745928 -4.509038 0.000000 0.000000 0.000000 -15.444251 13.962920 11.255411 14.500331 -0.443382 4.390508 2.237515 0.506169 -6.520079 0.000000 0.000001 0.000000 0.000000 0.000001 0.000000 0.000000 -0.000001 -0.000000 -1.042446 -9.844082 4.584818 6.624673 -9.985583 -4.223013 -2.018924 -4.463043 3.464810 -0.000000 -0.000000 -0.000000 -0.000000 -0.000000 -0.000000 -0.000000 0.000003 0.000000 4.213391 1.709811 2.128029 2.588340 0.625342 1.042277 2.562509 0.653308 1.056871 6.641617 -0.337758 -1.030025 -7.594726 -0.090018 -2.534539 0.000000 0.000000 0.000000 0.000000 0.000000 0.000000 0.000000 0.000000 0.000000 0.856456 -18.454165 -13.763067 2.273569 -17.578161 -66.596844 -0.000003 -1.140192 -0.000004 -31.809369 -1.312760 -3.562866 3.614505 4.768014 3.487221 11.155035 24.714751 19.771460 -0.000000 -0.000002 -0.000001 0.758468 -0.015863 -8.996103 0.272473 1.767516 -17.525451 0.000000 0.000001 -0.000003 0.125769 3.344768 -14.500869 0.259570 1.726152 -17.102230 -0.000000 -0.000001 -0.000002 0.605195 4.827179 -22.822717 0.387644 2.097474 -20.939997 0.000000 -0.000001 -0.000004 1.380615 6.424971 -28.257401 0.271244 1.763634 -17.485639 -0.000000 0.000001 0.000002 0.000004 0.000000 -0.000000 1.257587 17.576759 14.318529 9.908334 26.741703 60.334380 -0.000002 6.637492 0.000006 -18.763839 -0.053617 4.664407 -0.492601 0.549758 -2.648349 12.166508 -29.633746 -17.670160 0.000003 0.000001 0.000003 0.012524 0.791182 8.870006 0.213984 -1.396906 17.418101 -0.000001 -0.000000 0.000002 -0.057513 -2.619067 16.792215 0.213427 -1.395066 17.394603 0.000000 -0.000001 -0.000002 0.213048 -3.600344 22.188319 0.306067 -1.662068 20.866769 0.000002 -0.000001 0.000000 0.771565 -4.922793 29.464231 0.207837 -1.377121 17.163695 -0.000001 0.000001 0.000002 -0.000002 0.000000 0.000001 -0.000000 0.000000 -0.000000 -0.000000 0.000000 -0.000000 -0.000000 0.000000 -0.000000 -0.000000 0.000000 -0.000000 -0.000000 0.000000 -0.000000 -0.000000 0.000000 -0.000000 -0.000000 0.000000 -0.000000 -0.000000 0.000000 -0.000000 -0.000000 0.000000 -0.000000 0.000001 0.000000 -0.000000 0.000001 0.000000 -0.000000 0.000000 0.000000 0.000000 
0.748159 82.343834 -1.675931 -3.208413 -3.163182 -4.403413 0.000000 -0.000000 -0.000001 -15.002408 14.007765 11.185928 13.986516 -0.033178 4.337833 2.407961 0.516739 -6.609409 0.000000 -0.000000 0.000000 0.000000 -0.000000 -0.000000 -0.000000 -0.000000 -0.000000 -0.930972 -9.893678 4.426314 6.432416 -9.986267 -4.082293 -1.982154 -3.970938 3.382547 0.000000 -0.000000 0.000000 0.000000 -0.000000 0.000000 0.000000 0.000003 -0.000000 4.114470 1.698381 2.159461 2.425528 0.606146 1.110420 2.399694 0.633832 1.124905 6.609214 -0.329087 -0.885320 -7.541652 0.018722 -2.424887 0.000001 0.000000 -0.000000 0.000001 0.000000 -0.000000 0.000001 0.000000 -0.000000 0.874035 -18.370000 -13.639355 2.697042 -17.687828 -66.979909 -0.000002 -1.164633 -0.000014 -31.733216 -1.323568 -3.037030 3.094536 4.670707 3.783821 11.218505 24.786514 19.510565 -0.000002 -0.000001 -0.000002 0.685027 -0.114688 -8.800419 0.271876 1.765636 -17.506147 0.000000 0.000001 0.000000 0.042761 3.019048 -14.433609 0.260271 1.728433 -17.125504 -0.000000 -0.000001 0.000002 0.562600 4.726845 -22.711243 0.387589 2.097318 -20.938373 -0.000000 0.000000 -0.000000 1.337625 6.343485 -28.222613 0.271173 1.763408 -17.483322 -0.000000 -0.000001 0.000005 -0.000004 -0.000000 0.000000 1.236049 17.372759 14.442575 10.245560 26.462683 60.236333 0.000003 6.608453 0.000026 -18.872740 -0.088323 4.849085 -0.629134 0.550322 -2.878733 12.270843 -29.673149 -17.367385 -0.000002 0.000001 0.000000 0.011575 0.915757 8.390511 0.214022 -1.396984 17.419224 0.000001 -0.000001 0.000002 -0.069166 -2.549228 16.326947 0.214763 -1.399365 17.449962 0.000004 0.000000 0.000001 0.181498 -3.511789 21.746993 0.305957 -1.661801 20.863354 -0.000000 -0.000001 0.000004 0.769838 -4.917212 28.683045 0.207886 -1.377293 17.165877 -0.000000 -0.000001 0.000000 0.000003 -0.000000 0.000000 0.000001 -0.000000 -0.000000 0.000001 -0.000000 -0.000000 0.000001 -0.000000 -0.000000 0.000001 -0.000000 -0.000000 0.000001 -0.000000 -0.000000 0.000001 -0.000000 0.000000 0.000001 -0.000000 -0.000000 0.000001 -0.000000 -0.000000 0.000001 -0.000000 0.000000 0.000000 -0.000000 -0.000000 0.000000 -0.000000 -0.000000 0.000000 -0.000000 -0.000001 
